<svg xmlns="http://www.w3.org/2000/svg" width="1920" height="1080" viewBox="0 0 1920 1080">
<defs>
  <linearGradient id="bg" x1="0" y1="0" x2="0" y2="1">
    <stop offset="0" stop-color="#0D0D0F"/>
    <stop offset="1" stop-color="#101013"/>
  </linearGradient>
  <radialGradient id="tipglow">
    <stop offset="0" stop-color="#FFB454" stop-opacity="0.32"/>
    <stop offset="1" stop-color="#FFB454" stop-opacity="0"/>
  </radialGradient>
</defs>
<rect width="1920" height="1080" fill="url(#bg)"/>
<circle cx="960.0" cy="560.0" r="360.0" fill="#111114"/>
<circle cx="960.0" cy="560.0" r="360.0" fill="none" stroke="#222327" stroke-width="3"/>
<circle cx="960.0" cy="560.0" r="346.0" fill="none" stroke="#17181B" stroke-width="1.5"/>
<path d="M 1301.42 579.89 A 342.00 342.00 0 0 1 1257.51 728.67 L 1234.90 715.85 A 316.00 316.00 0 0 0 1275.47 578.37 Z" fill="#D2241E"/>
<line x1="663.82" y1="731.00" x2="691.53" y2="715.00" stroke="#E8E9DF" stroke-width="5.0"/><line x1="645.97" y1="695.46" x2="656.99" y2="690.71" stroke="#50535A" stroke-width="1.8"/><line x1="632.37" y1="658.09" x2="651.53" y2="652.35" stroke="#C9CBC0" stroke-width="3.0"/><line x1="623.20" y1="619.39" x2="635.01" y2="617.30" stroke="#50535A" stroke-width="1.8"/><line x1="618.58" y1="579.89" x2="650.52" y2="578.02" stroke="#E8E9DF" stroke-width="5.0"/><line x1="618.58" y1="540.11" x2="630.56" y2="540.81" stroke="#50535A" stroke-width="1.8"/><line x1="623.20" y1="500.61" x2="642.89" y2="504.09" stroke="#C9CBC0" stroke-width="3.0"/><line x1="632.37" y1="461.91" x2="643.86" y2="465.35" stroke="#50535A" stroke-width="1.8"/><line x1="645.97" y1="424.54" x2="675.35" y2="437.22" stroke="#E8E9DF" stroke-width="5.0"/><line x1="663.82" y1="389.00" x2="674.21" y2="395.00" stroke="#50535A" stroke-width="1.8"/><line x1="685.67" y1="355.77" x2="701.72" y2="367.71" stroke="#C9CBC0" stroke-width="3.0"/><line x1="711.24" y1="325.31" x2="719.97" y2="333.54" stroke="#50535A" stroke-width="1.8"/><line x1="740.17" y1="298.01" x2="760.74" y2="322.53" stroke="#E8E9DF" stroke-width="5.0"/><line x1="772.07" y1="274.26" x2="778.66" y2="284.29" stroke="#50535A" stroke-width="1.8"/><line x1="806.51" y1="254.38" x2="815.49" y2="272.25" stroke="#C9CBC0" stroke-width="3.0"/><line x1="843.03" y1="238.63" x2="847.13" y2="249.90" stroke="#50535A" stroke-width="1.8"/><line x1="881.13" y1="227.22" x2="888.51" y2="258.36" stroke="#E8E9DF" stroke-width="5.0"/><line x1="920.30" y1="220.31" x2="921.69" y2="232.23" stroke="#50535A" stroke-width="1.8"/><line x1="960.00" y1="218.00" x2="960.00" y2="238.00" stroke="#C9CBC0" stroke-width="3.0"/><line x1="999.70" y1="220.31" x2="998.31" y2="232.23" stroke="#50535A" stroke-width="1.8"/><line x1="1038.87" y1="227.22" x2="1031.49" y2="258.36" stroke="#E8E9DF" stroke-width="5.0"/><line x1="1076.97" y1="238.63" x2="1072.87" y2="249.90" stroke="#50535A" stroke-width="1.8"/><line x1="1113.49" y1="254.38" x2="1104.51" y2="272.25" stroke="#C9CBC0" stroke-width="3.0"/><line x1="1147.93" y1="274.26" x2="1141.34" y2="284.29" stroke="#50535A" stroke-width="1.8"/><line x1="1179.83" y1="298.01" x2="1159.26" y2="322.53" stroke="#E8E9DF" stroke-width="5.0"/><line x1="1208.76" y1="325.31" x2="1200.03" y2="333.54" stroke="#50535A" stroke-width="1.8"/><line x1="1234.33" y1="355.77" x2="1218.28" y2="367.71" stroke="#C9CBC0" stroke-width="3.0"/><line x1="1256.18" y1="389.00" x2="1245.79" y2="395.00" stroke="#50535A" stroke-width="1.8"/><line x1="1274.03" y1="424.54" x2="1244.65" y2="437.22" stroke="#E8E9DF" stroke-width="5.0"/><line x1="1287.63" y1="461.91" x2="1276.14" y2="465.35" stroke="#50535A" stroke-width="1.8"/><line x1="1296.80" y1="500.61" x2="1277.11" y2="504.09" stroke="#C9CBC0" stroke-width="3.0"/><line x1="1301.42" y1="540.11" x2="1289.44" y2="540.81" stroke="#50535A" stroke-width="1.8"/><line x1="1301.42" y1="579.89" x2="1269.48" y2="578.02" stroke="#E8E9DF" stroke-width="5.0"/><line x1="1296.80" y1="619.39" x2="1284.99" y2="617.30" stroke="#0D0D0F" stroke-width="1.8"/><line x1="1287.63" y1="658.09" x2="1268.47" y2="652.35" stroke="#0D0D0F" stroke-width="3.0"/><line x1="1274.03" y1="695.46" x2="1263.01" y2="690.71" stroke="#0D0D0F" stroke-width="1.8"/><line x1="1256.18" y1="731.00" x2="1228.47" y2="715.00" stroke="#E8E9DF" stroke-width="5.0"/>
<text x="686.46" y="595.94" text-anchor="middle" font-family="Noto Sans" font-weight="600" font-size="58" fill="#E8E9DF">1</text><text x="708.41" y="471.48" text-anchor="middle" font-family="Noto Sans" font-weight="600" font-size="58" fill="#E8E9DF">2</text><text x="783.88" y="370.11" text-anchor="middle" font-family="Noto Sans" font-weight="600" font-size="58" fill="#E8E9DF">3</text><text x="896.81" y="313.40" text-anchor="middle" font-family="Noto Sans" font-weight="600" font-size="58" fill="#E8E9DF">4</text><text x="1023.19" y="313.40" text-anchor="middle" font-family="Noto Sans" font-weight="600" font-size="58" fill="#E8E9DF">5</text><text x="1136.12" y="370.11" text-anchor="middle" font-family="Noto Sans" font-weight="600" font-size="58" fill="#E8E9DF">6</text><text x="1211.59" y="471.48" text-anchor="middle" font-family="Noto Sans" font-weight="600" font-size="58" fill="#E8E9DF">7</text><text x="1233.54" y="595.94" text-anchor="middle" font-family="Noto Sans" font-weight="600" font-size="58" fill="#E8E9DF">8</text><text x="1197.29" y="717.01" text-anchor="middle" font-family="Noto Sans" font-weight="600" font-size="58" fill="#E8E9DF">9</text>
<text x="960.0" y="432.0" text-anchor="middle" font-family="Noto Sans" font-weight="400" font-size="25" letter-spacing="3" fill="#50535A">×1000r/min</text>
<g transform="translate(960.00 678.00) scale(0.46) skewX(-12) translate(-140.00 -50.00)"><polygon points="0.00,0.00 20.00,0.00 20.00,100.00 0.00,100.00" fill="#E8E9DF"/><polygon points="58.00,0.00 78.00,0.00 78.00,100.00 58.00,100.00" fill="#E8E9DF"/><polygon points="0.00,0.00 20.00,0.00 78.00,100.00 58.00,100.00" fill="#E8E9DF"/><path d="M 167.0 15 C 156.0 6, 122.0 2, 115.0 24 C 109.0 44, 132.0 47, 142.0 50 C 154.0 54, 171.0 59, 163.0 79 C 155.0 99, 120.0 96, 110.0 84" fill="none" stroke="#E8E9DF" stroke-width="20" stroke-linecap="butt"/><polygon points="200.00,0.00 222.00,0.00 280.00,100.00 258.00,100.00" fill="#E8E9DF"/><polygon points="258.00,0.00 280.00,0.00 222.00,100.00 200.00,100.00" fill="#E8E9DF"/></g>
<text x="960.0" y="738.0" text-anchor="middle" font-family="Noto Sans" font-weight="400" font-size="19" letter-spacing="6" fill="#50535A">1990</text>
<polygon points="907.14,560.33 1199.64,606.10 1200.95,598.64 910.44,541.61" fill="#F04A3E"/>
<polygon points="1198.65,605.94 1280.67,618.78 1281.43,614.44 1199.97,598.45" fill="#E89C3F"/>
<circle cx="1265.29" cy="613.83" r="20" fill="url(#tipglow)"/>
<circle cx="960.0" cy="560.0" r="42" fill="#17181B" stroke="#222327" stroke-width="3"/>
<circle cx="960.0" cy="560.0" r="12" fill="#0D0D0F"/>
<text x="960.0" y="982" text-anchor="middle" font-family="Cantarell" font-weight="400" font-size="26" letter-spacing="10" fill="#C9CBC0">PRECISION CRAFTED PERFORMANCE</text>
</svg>